<?xml version="1.0" encoding="utf-8"?>
<!-- Generator: Adobe Illustrator 22.0.1, SVG Export Plug-In . SVG Version: 6.00 Build 0)  -->
<svg version="1.1" id="Ebene_1" xmlns="http://www.w3.org/2000/svg" xmlns:xlink="http://www.w3.org/1999/xlink" x="0px" y="0px"
	 viewBox="0 0 50 50" style="enable-background:new 0 0 50 50;" xml:space="preserve">
<style type="text/css">
	.st0{fill:#FFFFFF;}
</style>
<g>
	<path class="st0" d="M23.3,49.1C23.2,49,23,49,22.8,48.9c-0.9-0.5-1.4-1.2-1.4-2.2c0-0.2,0-0.4-0.3-0.5c-2.7-1.2-3.9-3.3-3.9-6.2
		c0-1.4,0-2.7-0.3-4.1c-0.5-1.8-1.3-3.4-2.6-4.8c-1.3-1.4-2.4-2.9-3.1-4.6c-1.6-3.9-1.7-7.8,0-11.6c1.5-3.4,3.9-5.9,7.3-7.4
		c2.6-1.2,5.3-1.6,8.1-1.1c5.3,0.9,9.2,3.8,11.2,8.7c2.3,5.5,1.4,10.6-2.5,15.2c-1.2,1.4-2.4,2.9-3,4.7c-0.4,1.2-0.5,2.5-0.6,3.8
		c0,1,0,2.1-0.2,3.1c-0.4,1.9-1.6,3.3-3.4,4.1c-0.4,0.2-0.6,0.3-0.6,0.8c0,1-0.6,1.7-1.6,2.1c-0.1,0.1-0.3,0.1-0.4,0.2
		C24.8,49.1,24.1,49.1,23.3,49.1z M28.7,37.5c0.4,0,0.7,0,1,0c0.4,0,0.4-0.1,0.5-0.5c0.2-1,0.4-2,0.7-3c0.6-1.9,1.8-3.4,3.1-4.8
		c2.6-2.9,3.6-6.4,3.1-10.3C36.3,13.2,31.8,8.6,26,8c-4.1-0.5-7.7,0.7-10.6,3.7C12.1,15,11,19,12,23.5c0.5,2.4,1.7,4.4,3.3,6.1
		c2,2.1,3.2,4.6,3.5,7.5c0,0.1,0.2,0.3,0.3,0.3c0.4,0,0.7,0,1.2,0c0-0.2,0-0.4,0-0.6c0-5.2,0-10.4,0-15.6c0-0.4,0.1-0.8,0.3-1.1
		c1-1.5,2-3,3-4.5c0.6-0.8,1.2-0.8,1.7,0c1,1.5,1.9,2.9,2.9,4.4c0.3,0.4,0.4,0.9,0.4,1.4c0,5.2,0,10.3,0,15.5
		C28.7,37.1,28.7,37.3,28.7,37.5z M26.9,37.5c0-5.1,0-10.2,0-15.3c-0.5,0.1-1.1,0.2-1.6,0.3c0,5,0,10,0,15
		C25.9,37.5,26.4,37.5,26.9,37.5z M22,22.1c0,5.1,0,10.2,0,15.3c0.5,0,1.1,0,1.6,0c0-5,0-10,0-15C23,22.3,22.5,22.2,22,22.1z
		 M19.3,42.2c0.5,1.3,1.7,2.4,3.2,2.6c1,0.2,2.1,0.1,3.1,0.1c0.8,0,1.6-0.2,2.3-0.7c0.8-0.5,1.4-1.1,1.7-2
		C26.1,42.2,22.7,42.2,19.3,42.2z M18.9,40.5c3.7,0,7.4,0,11.1,0c0-0.4,0-0.8,0-1.2c-3.7,0-7.4,0-11.1,0
		C18.9,39.7,18.9,40,18.9,40.5z M26.4,20.5c-0.4-0.8-0.4-0.7-1.1-0.6c-0.6,0.1-1.2,0.1-1.8,0c-0.7-0.1-0.8-0.1-1,0.7
		C23.8,20.8,25.1,20.8,26.4,20.5z M23.1,46.7c0,0.4,0.2,0.7,0.6,0.7c0.5,0,1,0,1.5,0c0.4,0,0.6-0.3,0.6-0.7
		C24.9,46.7,24,46.7,23.1,46.7z M24.4,17.4c-0.2,0.3-0.3,0.5-0.5,0.8c0.4,0,0.6,0,1,0C24.8,17.9,24.6,17.7,24.4,17.4z"/>
	<path class="st0" d="M42.3,20c0.3,0,0.6,0,1,0.1c0.4,0.1,0.6,0.4,0.6,0.8c0,0.4-0.2,0.8-0.6,0.8c-0.7,0.1-1.3,0.1-2,0
		c-0.4,0-0.6-0.4-0.6-0.8c0-0.4,0.2-0.7,0.7-0.8C41.6,20,42,20,42.3,20z"/>
	<path class="st0" d="M6.6,21.7c-0.3,0-0.7,0-1-0.1C5.2,21.5,5,21.2,5,20.8c0-0.4,0.2-0.7,0.6-0.8C6.3,20,7,20,7.6,20.1
		c0.4,0,0.6,0.4,0.6,0.8c0,0.4-0.2,0.7-0.6,0.8C7.3,21.7,6.9,21.7,6.6,21.7z"/>
	<path class="st0" d="M15.3,3.9c0.1,0.1,0.4,0.2,0.5,0.4c0.3,0.4,0.5,0.8,0.7,1.3c0.2,0.5,0.1,0.9-0.3,1.2c-0.4,0.2-0.9,0.1-1.2-0.3
		c-0.3-0.5-0.6-0.9-0.8-1.4C14.1,4.5,14.6,3.9,15.3,3.9z"/>
	<path class="st0" d="M34.6,4.7c-0.1,0.3-0.1,0.4-0.2,0.6c-0.2,0.4-0.5,0.9-0.7,1.3C33.4,6.9,33,7,32.6,6.8
		c-0.4-0.2-0.6-0.7-0.4-1.1c0.3-0.5,0.5-1,0.9-1.5C33.3,3.9,33.7,3.8,34,4C34.3,4.2,34.5,4.5,34.6,4.7z"/>
	<path class="st0" d="M41.4,11.7c-0.1,0.1-0.2,0.4-0.5,0.6c-0.4,0.3-0.8,0.5-1.3,0.7c-0.4,0.2-0.9,0.1-1.1-0.3
		c-0.2-0.4-0.1-0.9,0.3-1.1c0.5-0.3,0.9-0.6,1.4-0.8C40.8,10.6,41.4,10.9,41.4,11.7z"/>
	<path class="st0" d="M8.4,10.7c0.1,0,0.2,0,0.3,0.1c0.5,0.3,1,0.5,1.4,0.8c0.4,0.3,0.5,0.7,0.2,1.1c-0.2,0.4-0.7,0.5-1.1,0.3
		c-0.5-0.2-1-0.5-1.4-0.8c-0.3-0.2-0.4-0.6-0.3-0.9C7.7,10.9,8,10.7,8.4,10.7z"/>
	<path class="st0" d="M10.6,29.5c-0.2,0.2-0.3,0.5-0.5,0.7c-0.4,0.3-0.8,0.5-1.3,0.7c-0.4,0.2-0.9,0.1-1.1-0.3
		c-0.2-0.4-0.2-0.9,0.3-1.2c0.5-0.3,0.9-0.6,1.5-0.8C9.9,28.4,10.5,28.8,10.6,29.5z"/>
	<path class="st0" d="M41.4,30c0,0.7-0.6,1.2-1.2,0.9c-0.5-0.2-1-0.5-1.4-0.8c-0.4-0.3-0.5-0.7-0.2-1.1c0.2-0.4,0.6-0.5,1-0.3
		c0.5,0.3,1,0.5,1.5,0.9C41.2,29.6,41.3,29.9,41.4,30z"/>
	<path class="st0" d="M23.6,3c0-0.3,0-0.5,0-0.8c0-0.4,0.4-0.7,0.8-0.8c0.4,0,0.8,0.3,0.8,0.8c0,0.6,0,1.1,0,1.7
		c0,0.4-0.4,0.7-0.8,0.7c-0.4,0-0.8-0.3-0.8-0.7C23.6,3.6,23.6,3.3,23.6,3C23.6,3,23.6,3,23.6,3z"/>
	<path class="st0" d="M36.1,20.2c0,0.1,0,0.2,0,0.2c0,0.7-0.3,1.1-0.8,1.1c-0.5,0-0.8-0.4-0.9-1c-0.1-0.7-0.1-1.4-0.3-2
		c-0.9-3.5-3-5.9-6.4-7.2c-0.2-0.1-0.4-0.1-0.6-0.2c-0.5-0.2-0.7-0.6-0.6-1.1c0.1-0.5,0.6-0.7,1.1-0.5c0.8,0.3,1.7,0.6,2.4,1
		C33.9,12.7,35.8,15.9,36.1,20.2z"/>
	<path class="st0" d="M24.6,9c0.8,0,1.3,0.3,1.2,0.9c0,0.6-0.4,0.8-1.3,0.8c-0.8,0-1.2-0.3-1.2-0.9C23.4,9.3,23.9,9,24.6,9z"/>
</g>
</svg>
