<?xml version="1.0" encoding="utf-8"?>
<!-- Generator: Adobe Illustrator 22.0.1, SVG Export Plug-In . SVG Version: 6.00 Build 0)  -->
<svg version="1.1" id="Ebene_1" xmlns="http://www.w3.org/2000/svg" xmlns:xlink="http://www.w3.org/1999/xlink" x="0px" y="0px"
	 viewBox="0 0 50 50" style="enable-background:new 0 0 50 50;" xml:space="preserve">
<style type="text/css">
	.st0{fill:#FFFFFF;}
</style>
<g>
	<path class="st0" d="M4.7,12.7c0.2-0.3,0.5-0.4,0.9-0.4c1.1,0,2.2,0,3.2,0c0.2,0,0.3,0,0.5,0c0-0.3,0-0.6,0-0.9c0-0.8,0-1.5,0-2.3
		c0-0.5,0.2-0.7,0.6-0.7c0.4,0,0.6,0.2,0.7,0.7c0,0.9,0,1.8,0,2.6c0,0.1,0,0.3,0,0.5c0.8,0,1.5,0,2.2,0c0.5,0,0.8,0.4,0.7,0.8
		c-0.1,0.4-0.4,0.5-0.7,0.5c-0.7,0-1.3,0-2,0c0,1.4,0,2.8,0,4.3c2.5-1.4,4.9-2.8,7.4-4.3c-0.2,0-0.3,0-0.4,0c-0.7,0-1.5,0-2.2,0
		c-0.4,0-0.7-0.3-0.7-0.7c0-0.4,0.3-0.6,0.7-0.6c0.1,0,0.2,0,0.3,0c2.2,0,4.5,0,6.7,0c2.4,0,4.9,0,7.3,0c0.2,0,0.3,0,0.6,0
		c0-0.5,0-0.9,0-1.4c0-0.6,0-1.1,0-1.7c0-0.5,0.2-0.8,0.6-0.8c0.4,0,0.6,0.3,0.6,0.8c0,0.9,0,1.8,0,2.6c0,0.1,0,0.2,0,0.4
		c0.2,0,0.5,0,0.7,0c1.1,0,2.1,0,3.2,0c0.5,0,0.7,0.2,0.8,0.6c0,0.4-0.3,0.7-0.7,0.7c-1.1,0-2.3,0-3.4,0c-0.2,0-0.3,0-0.5,0
		c0,3.1,0,6.2,0,9.4c0.1-0.1,0.2-0.2,0.3-0.2c1.9-1.9,3.8-3.8,5.7-5.7c0.2-0.2,0.2-0.3,0.1-0.6c-0.3-0.9-0.2-1.7,0.5-2.4
		c0.7-0.7,1.5-0.8,2.4-0.5c0.2,0.1,0.4,0.1,0.6-0.1c1.6-1.2,3.9-1.1,5.3,0.3c1.4,1.4,1.6,3.7,0.3,5.3c-0.1,0.2-0.2,0.3-0.1,0.6
		c0.3,0.9,0.2,1.7-0.5,2.4c-0.7,0.7-1.5,0.9-2.4,0.5c-0.3-0.1-0.4,0-0.6,0.2c-3.3,3.3-6.7,6.6-10,10c-0.4,0.4-0.9,0.6-1.4,0.8
		c-0.1,0-0.3,0.2-0.3,0.3c0,0.9,0,1.8,0,2.7c0.5,0,0.9,0,1.4,0c0.8,0,1.7,0,2.5,0c0.5,0,0.8,0.2,0.8,0.7c0,0.4-0.3,0.6-0.8,0.6
		c-1.1,0-2.2,0-3.4,0c-0.2,0-0.3,0-0.5,0c0,0.9,0,1.8,0,2.7c0,0.2,0,0.3,0,0.5c0,0.4-0.3,0.7-0.7,0.7c-0.4,0-0.6-0.3-0.6-0.7
		c0-0.9,0-1.9,0-2.8c0-0.1,0-0.2,0-0.4c-0.4,0-0.9,0-1.3,0c-0.5,0-0.8-0.2-0.8-0.6c0-0.4,0.3-0.6,0.8-0.7c0.4,0,0.9,0,1.3,0
		c0-0.8,0-1.6,0-2.4c-0.3,0.1-0.6,0.2-0.9,0.3c-0.8,0.3-1.5,0.5-2.3,0.8c-0.5,0.2-1,0.2-1.5-0.1c-0.1,0-0.2-0.1-0.3,0
		c-0.8,0.4-1.6,0.9-2.3,1.4c0.6,0,1.2,0,1.8,0c0.4,0,0.9,0,1.3,0c0.5,0,0.8,0.2,0.8,0.7c0,0.4-0.3,0.6-0.8,0.6c-4.7,0-9.5,0-14.2,0
		c-0.4,0-0.8,0-1.3,0c0,0.4,0,0.7,0,1c0,0.7,0,1.4,0,2.1c0,0.5-0.3,0.7-0.7,0.7c-0.4,0-0.6-0.3-0.6-0.7c0-1,0-2,0-3.1
		c-0.2,0-0.3,0-0.5,0c-1.1,0-2.2,0-3.2,0c-0.4,0-0.7-0.1-1-0.4c0-0.2,0-0.3,0-0.5c0.2-0.3,0.6-0.4,0.9-0.4c1.1,0,2.2,0,3.2,0
		c0.1,0,0.3,0,0.4,0c0-7.6,0-15.2,0-22.9c-1.3,0-2.5,0-3.7,0c-0.4,0-0.7-0.1-1-0.4C4.7,13.1,4.7,12.9,4.7,12.7z M27.6,27.1
		c0.9-0.9,1.8-1.8,2.6-2.7c0.1-0.1,0.1-0.3,0.1-0.5c0-1.2,0-2.4,0-3.6c0-0.7-0.3-1.1-0.8-1.4c-2.8-1.6-5.5-3.2-8.2-4.8
		c-0.5-0.3-1-0.3-1.6,0c-2.8,1.6-5.5,3.2-8.3,4.8c-0.5,0.3-0.8,0.7-0.8,1.3c0,3.2,0,6.4,0,9.7c0,0.6,0.2,1,0.7,1.3
		c2.8,1.6,5.6,3.2,8.4,4.8c0.5,0.3,1,0.3,1.5,0c1.2-0.7,2.4-1.4,3.5-2c0.1-0.1,0.2-0.2,0.2-0.3c0.4-1.1,0.8-2.2,1.1-3.3
		c0-0.1,0.1-0.3,0.1-0.5c-0.2,0.1-0.4,0.2-0.5,0.3c-1.3,0.7-2.6,1.5-3.9,2.2c-0.9,0.5-1.8,0.6-2.7,0.1c-1.5-0.9-3-1.7-4.5-2.6
		c-0.8-0.5-1.3-1.2-1.3-2.2c0-1.8,0-3.5,0-5.3c0-0.9,0.4-1.7,1.3-2.1c1.5-0.9,3-1.8,4.5-2.6c0.8-0.5,1.7-0.5,2.5,0
		c1.5,0.9,3,1.7,4.5,2.6c0.9,0.5,1.3,1.3,1.3,2.3c0,1.3,0,2.7,0,4C27.6,26.7,27.6,26.8,27.6,27.1z M14.7,25.1c0,0.9,0,1.7,0,2.6
		c0,0.5,0.2,0.9,0.7,1.2c1.5,0.8,2.9,1.7,4.4,2.5c0.5,0.3,0.9,0.3,1.4,0c1.5-0.8,3-1.7,4.4-2.6c0.4-0.3,0.7-0.7,0.7-1.2
		c0-1.7,0-3.4,0-5.1c0-0.5-0.2-0.9-0.7-1.2c-1.5-0.9-3-1.7-4.4-2.6c-0.5-0.3-1-0.3-1.4,0c-1.4,0.8-2.9,1.7-4.3,2.5
		c-0.5,0.3-0.8,0.7-0.8,1.3C14.7,23.4,14.7,24.2,14.7,25.1z M38.8,17.8c-3.1,3.1-6.3,6.3-9.4,9.4c0.2,0.2,0.6,0.3,0.8,0.5
		c0.2,0.2,0.4,0.6,0.6,0.9c0.1-0.1,0.2-0.2,0.3-0.3c1.7-1.7,3.3-3.3,5-5c0.1-0.1,0.2-0.2,0.4-0.3c0.4-0.2,0.9,0.1,0.9,0.6
		c0,0.2-0.2,0.4-0.3,0.6c-1,1-2.1,2.1-3.1,3.1c-0.8,0.8-1.5,1.5-2.3,2.3c0.3,0.2,0.7,0.4,0.9,0.6c0.2,0.2,0.4,0.6,0.5,0.8
		c3.1-3.1,6.3-6.3,9.4-9.4c-0.5-0.5-0.9-0.9-1.4-1.4c-0.1,0.1-0.2,0.2-0.3,0.3c-0.5,0.5-1,1-1.5,1.5c-0.3,0.3-0.7,0.3-1,0.1
		c-0.2-0.3-0.2-0.6,0.1-0.9c0.1-0.1,0.2-0.2,0.3-0.3c0.5-0.5,1-1,1.4-1.4C39.7,18.7,39.2,18.3,38.8,17.8z M44.6,21.5
		c0.5,0,0.9-0.2,1-0.6c0.2-0.4,0.1-0.8-0.2-1.2c-1.6-1.6-3.2-3.2-4.8-4.8c-0.4-0.4-1-0.4-1.4,0c-0.4,0.4-0.4,1,0,1.4
		c1.6,1.6,3.2,3.2,4.8,4.8C44.2,21.3,44.5,21.4,44.6,21.5z M30.3,13.7c-2.5,0-4.9,0-7.4,0c2.5,1.5,4.9,2.9,7.4,4.3
		C30.3,16.5,30.3,15.1,30.3,13.7z M17.9,36.5C17.9,36.5,18,36.5,17.9,36.5c-2.4-1.5-4.8-2.9-7.2-4.3c0,1.5,0,2.9,0,4.3
		C13.1,36.5,15.5,36.5,17.9,36.5z M29.6,29.4c0-0.1,0-0.3-0.1-0.5c-0.1-0.4-0.4-0.6-0.9-0.6c-0.4,0-0.5,0.2-0.6,0.5
		c-0.2,0.8-0.5,1.5-0.8,2.2c-0.1,0.2-0.1,0.4,0.1,0.5c0.5,0.5,0.9,1,1.4,1.4c0.1,0.1,0.3,0.1,0.4,0.1c0.9-0.3,1.7-0.6,2.6-0.9
		c0.1,0,0.2-0.1,0.2-0.2c0.2-0.5-0.1-1.2-0.7-1.3c-0.3,0-0.6,0-0.9,0c-0.6,0.1-0.9-0.2-0.9-0.8C29.5,29.9,29.6,29.7,29.6,29.4z
		 M45.9,18.3c0.9-1.1,0.8-2.8-0.3-3.8c-1-0.9-2.7-0.9-3.6-0.1C43.3,15.8,44.6,17.1,45.9,18.3z M27.5,33.7c-0.3-0.3-0.6-0.6-0.9-0.9
		c-0.1,0.3-0.2,0.6-0.3,0.9c-0.1,0.3,0.1,0.4,0.3,0.3C26.9,34,27.2,33.8,27.5,33.7z"/>
</g>
</svg>
