<?xml version="1.0" encoding="utf-8"?>
<!-- Generator: Adobe Illustrator 22.0.1, SVG Export Plug-In . SVG Version: 6.00 Build 0)  -->
<svg version="1.1" id="Ebene_1" xmlns="http://www.w3.org/2000/svg" xmlns:xlink="http://www.w3.org/1999/xlink" x="0px" y="0px"
	 viewBox="0 0 50 50" style="enable-background:new 0 0 50 50;" xml:space="preserve">
<style type="text/css">
	.st0{fill:#FFFFFF;}
</style>
<g>
	<path class="st0" d="M46.6,19.6c-0.6,1.3-1,1.6-2.5,1.6c-1.8,0-3.7,0-5.5,0c-1.5,0-2.2-0.8-2.2-2.2c0-3.1,0-6.1,0-9.2
		c0-0.2,0-0.3,0-0.6c-0.2,0-0.3,0-0.5,0c-3.1,0-6.2,0-9.4,0c-1,0-1.4,0.4-1.4,1.4c0,6.2,0,12.3,0,18.5c0,1,0.4,1.4,1.3,1.4
		c4.4,0,8.7,0,13.1,0c0.9,0,1.3-0.4,1.3-1.3c0-1.7,0-3.4,0-5.1c0-0.1,0-0.3,0-0.4c0.1-0.4,0.3-0.6,0.6-0.6c0.3,0,0.6,0.2,0.6,0.5
		c0,0.1,0,0.3,0,0.4c0,1.7,0,3.4,0,5.2c0,1.7-0.9,2.6-2.6,2.6c-0.3,0-0.6,0-0.9,0c0,2.9,0,5.8,0,8.7c0.2,0,0.4,0,0.7,0
		c1.1,0,1.9,0.9,2,2c0,0.5,0,1.1,0,1.6c0,1-0.9,1.8-1.9,1.9c-0.1,0-0.3,0-0.4,0c-9.2,0-18.4,0-27.6,0c-0.1,0-0.3,0-0.4,0
		c-0.4,0-0.6-0.3-0.6-0.6c0-0.3,0.2-0.6,0.6-0.6c0.2,0,0.3,0,0.5,0c9.2,0,18.3,0,27.5,0c0.9,0,1-0.2,1-1c0-0.4,0-0.7,0-1.1
		c0-0.5-0.3-0.7-0.8-0.8c0,0-0.1,0-0.1,0c-4.2,0-8.4,0-12.6,0c-0.1,0-0.3,0-0.4,0c0,0.2-0.1,0.5-0.1,0.7c-0.3,1-1.2,1.6-2.2,1.6
		c-1.2,0-2.3,0-3.5,0c-1.4,0-2.2-0.8-2.4-2.1c0-0.1,0-0.1,0-0.2c-0.2,0-0.3,0-0.5,0c-4.1,0-8.3,0-12.4,0c-0.8,0-1,0.2-1,1
		c0,0.3,0,0.7,0,1c0,0.6,0.2,0.9,0.8,0.9c1,0,1.9,0,2.9,0c0.5,0,0.8,0.3,0.8,0.7c0,0.4-0.3,0.6-0.8,0.6c-0.8,0-1.7,0-2.5,0
		c-1.2,0.1-2.1-0.4-2.5-1.6c0-0.8,0-1.6,0-2.4c0.4-0.9,1-1.5,2.1-1.5c0.2,0,0.3,0,0.6,0c0-0.2,0-0.3,0-0.5c0-5.6,0-11.2,0-16.8
		c0-2.4,1.5-4,4-4c3.9,0,7.8,0,11.7,0c0.2,0,0.3,0,0.5,0c0.3,0.1,0.5,0.3,0.4,0.7c0,0.3-0.2,0.5-0.5,0.6c-0.2,0-0.3,0-0.5,0
		c-3.9,0-7.8,0-11.7,0c-1.7,0-2.7,1-2.7,2.7c0,5.6,0,11.2,0,16.8c0,0.2,0,0.3,0,0.5c10.3,0,20.5,0,30.7,0c0-2.9,0-5.8,0-8.7
		c-0.2,0-0.3,0-0.5,0c-3.5,0-6.9,0-10.4,0c-1.2,0-2.1-0.6-2.4-1.7c-0.1-0.3-0.1-0.6-0.1-0.9c0-6.2,0-12.4,0-18.6
		c0-1.6,1-2.6,2.6-2.6c3.1,0,6.2,0,9.3,0c0.2,0,0.3,0,0.5,0c0-0.6,0-1.1,0-1.7c0-1.4,0.8-2.2,2.2-2.2c1.8,0,3.7,0,5.5,0
		c1.2,0,2.1,0.4,2.5,1.6C46.6,10.3,46.6,15,46.6,19.6z M37.7,12.7c0,2.1,0,4.3,0,6.4c0,0.7,0.2,0.9,0.9,0.9c2,0,3.9,0,5.9,0
		c0.6,0,0.9-0.2,0.9-0.9c0-4.3,0-8.6,0-12.8c0-0.6-0.2-0.9-0.9-0.9c-2,0-3.9,0-5.9,0c-0.7,0-0.9,0.2-0.9,0.9
		C37.7,8.4,37.7,10.5,37.7,12.7z M24.8,41.8c-1.9,0-3.7,0-5.5,0c0,0.6,0.4,1,0.9,1c1.2,0,2.4,0,3.6,0C24.4,42.8,24.7,42.5,24.8,41.8
		z"/>
	<path class="st0" d="M16.5,23.2c0.6,0,0.8,0.3,0.9,0.8c0.9,2.5,1.9,5.1,2.9,7.6c0.4,1.1,0.8,2.1,1.2,3.2c0.2,0.5-0.1,0.9-0.5,0.9
		c-0.3,0-0.6-0.2-0.7-0.5c-0.2-0.7-0.5-1.3-0.7-2C19.5,33,19.3,33,19.1,33c-1.7,0-3.5,0-5.2,0c-0.3,0-0.4,0.1-0.5,0.3
		c-0.2,0.6-0.5,1.2-0.7,1.8c-0.2,0.5-0.5,0.7-0.9,0.5c-0.4-0.1-0.5-0.5-0.3-1c1.4-3.6,2.7-7.2,4.1-10.8C15.8,23.5,16,23.2,16.5,23.2
		z M18.9,31.6c-0.8-2.1-1.6-4.2-2.4-6.4c-0.8,2.2-1.6,4.3-2.5,6.4C15.7,31.6,17.3,31.6,18.9,31.6z"/>
	<path class="st0" d="M36.8,23.4c0,0.4-0.2,0.6-0.5,0.7c-0.3,0.1-0.6-0.1-0.7-0.4c-0.2-0.4-0.3-0.8-0.5-1.2
		c-0.1-0.1-0.3-0.3-0.4-0.3c-1.1,0-2.1,0-3.2,0c-0.2,0-0.4,0.1-0.4,0.3c-0.1,0.4-0.3,0.8-0.4,1.1c-0.2,0.4-0.5,0.6-0.8,0.5
		c-0.4-0.1-0.5-0.5-0.4-0.9c1-2.5,1.9-5,2.9-7.6c0.1-0.4,0.4-0.6,0.8-0.6c0.4,0,0.6,0.2,0.8,0.6c1,2.5,1.9,5,2.9,7.6
		C36.7,23.2,36.8,23.3,36.8,23.4z M33.1,17.2c0,0-0.1,0-0.1,0c-0.4,1.2-0.9,2.4-1.4,3.6c1,0,1.9,0,2.8,0
		C34,19.6,33.6,18.4,33.1,17.2z"/>
	<path class="st0" d="M33.1,25.4c1.1,0,2.1,0.9,2.1,2c0,1.1-0.9,2.1-2.1,2.1c-1.1,0-2.1-0.9-2.1-2.1C31,26.3,31.9,25.4,33.1,25.4z
		 M33.1,28.2c0.4,0,0.8-0.3,0.8-0.8c0-0.4-0.3-0.8-0.7-0.8c-0.4,0-0.8,0.3-0.8,0.8C32.3,27.8,32.6,28.2,33.1,28.2z"/>
	<path class="st0" d="M33,11.4c-0.5,0-1.1,0-1.6,0c-0.4,0-0.7-0.2-0.7-0.6c0-0.4,0.2-0.7,0.7-0.7c1.1,0,2.2,0,3.3,0
		c0.4,0,0.7,0.3,0.7,0.6c0,0.4-0.3,0.6-0.7,0.6C34,11.4,33.5,11.4,33,11.4z"/>
	<path class="st0" d="M41.5,12.1c-0.2,0.4-0.3,0.9-0.5,1.3c-0.2,0.5-0.5,0.7-0.9,0.5c-0.4-0.1-0.5-0.5-0.3-1c0.3-0.9,0.7-1.8,1-2.7
		c0.1-0.3,0.3-0.6,0.7-0.6c0.4,0,0.6,0.2,0.7,0.6c0.3,0.9,0.7,1.8,1,2.7c0.2,0.5,0,0.8-0.3,1c-0.4,0.1-0.7-0.1-0.9-0.5
		C41.9,13,41.7,12.6,41.5,12.1C41.6,12.2,41.5,12.2,41.5,12.1z"/>
	<path class="st0" d="M41.5,17.6c0.3,0,0.6,0.3,0.6,0.6c0,0.4-0.3,0.7-0.6,0.7c-0.3,0-0.7-0.3-0.7-0.6
		C40.9,17.9,41.2,17.6,41.5,17.6z"/>
</g>
</svg>
