<?xml version="1.0" encoding="utf-8"?>
<!-- Generator: Adobe Illustrator 22.0.1, SVG Export Plug-In . SVG Version: 6.00 Build 0)  -->
<svg version="1.1" id="Ebene_1" xmlns="http://www.w3.org/2000/svg" xmlns:xlink="http://www.w3.org/1999/xlink" x="0px" y="0px"
	 viewBox="0 0 50 50" style="enable-background:new 0 0 50 50;" xml:space="preserve">
<style type="text/css">
	.st0{fill:#FFFFFF;}
</style>
<g>
	<path class="st0" d="M5.2,46.3c-0.3-0.2-0.5-0.4-0.4-0.8c0.1-0.4,0.5-0.4,0.8-0.4c0.4,0,0.8,0,1.3,0c0-0.5,0-0.9,0-1.3
		c0-0.4,0-0.8,0-1.2c0.1-1,0.9-1.8,1.8-1.8c1.9,0,3.7,0,5.6,0c0.2,0,0.4,0.1,0.6,0.1c0-0.5,0-1.1,0-1.6c0-1.4,0.9-2.2,2.2-2.3
		c0.5,0,1,0,1.5,0c0.2,0,0.4-0.1,0.5-0.3c0.8-1.8,1.7-3.6,2.5-5.3c0.1-0.2,0.1-0.3,0.1-0.5c0.1-1.4,0.1-2.9,0.2-4.3
		c0.1-0.9,0.4-1.9,0.6-2.8c0.1-0.4,0.2-0.8,0.3-1.2c0.1-0.4,0.4-0.6,0.8-0.5c0.4,0.1,0.5,0.4,0.4,0.8c-0.2,0.6-0.4,1.3-0.6,2
		c0.8-0.3,1.5-0.6,2.2-0.9c0.5-0.2,0.7-0.4,0.9-0.9c0.2-0.8,0.5-1.6,0.8-2.4c0,0,0-0.1-0.1-0.1c-0.4,0-0.7-0.1-0.8-0.5
		c-0.1-0.4,0.1-0.6,0.4-0.8c1.8-1.1,3.6-2.2,5.5-3.3c0.7-0.4,1.1-0.9,1.3-1.7c0-0.1,0-0.3,0.1-0.5c-0.2,0.1-0.3,0.1-0.4,0.2
		c-2.4,1.3-4.9,2.7-7.3,4c-0.5,0.3-0.8,0.7-1,1.2c-0.1,0.4-0.2,0.7-0.3,1.1c-0.1,0.4-0.4,0.6-0.8,0.5c-0.4-0.1-0.5-0.4-0.4-0.8
		c0.2-0.7,0.5-1.5,0.7-2.2c-0.7-0.6-1-1.5-1.4-2.3c-0.2-0.4-0.2-0.9,0-1.4c0.3-0.9,2-1.8,2.9-1.5c0.5,0.2,0.9,0.5,1.2,0.9
		c0.4,0.7,0.7,1.3,1,2.1c0.5-0.3,1-0.5,1.5-0.8c1-0.6,2.1-1.1,3.1-1.7c0.3-0.1,0.4-0.3,0.4-0.6c0-2.6,0-5.1,0-7.7
		c0-0.4,0.1-0.7,0.4-0.9c0.2,0,0.3,0,0.5,0c0.2,0.3,0.3,0.6,0.5,0.9c0,0,0.2,0,0.4,0c2.2,0,4.5,0,6.7,0c0.5,0,0.9,0.1,1.1,0.6
		c0.2,0.4,0,0.8-0.4,1.2c-0.5,0.5-1.1,0.9-1.6,1.4c0.6,0.5,1.1,0.9,1.6,1.4c0.2,0.1,0.3,0.3,0.4,0.5c0.3,0.6-0.1,1.3-0.9,1.3
		c-2.3,0-4.6,0-6.8,0c-0.2,0-0.3,0-0.5,0c-0.1,0.7-0.1,0.8,0.4,1.3c0.1,0.1,0.2,0.3,0.2,0.4c0.3,1,0.1,2-0.4,2.9
		c-0.1,0.2-0.2,0.5-0.2,0.7c0,3.3,0,6.6,0,10c0,0.1,0,0.3,0,0.5c1.1,0,2,0,3,0c0.4,0,0.7,0,1.1,0c1.1,0.2,1.8,1,1.8,2.3
		c0,5.1,0,10.2,0,15.3c0,0.2,0,0.3,0,0.5c0.6,0,1.1,0,1.6,0c0.4,0,0.7,0.3,0.6,0.7c-0.1,0.2-0.2,0.3-0.3,0.5
		C30,46.3,17.6,46.3,5.2,46.3z M39.2,45.1c0-0.1,0-0.2,0-0.3c0-5.2,0-10.3,0-15.5c0-0.7-0.3-1-1.1-1c-1.5,0-3,0-4.5,0
		c-0.9,0-1.2,0.3-1.2,1.2c0,2.9,0,5.8,0,8.7c0,0.5-0.2,0.8-0.6,0.8c-0.4,0-0.6-0.3-0.6-0.8c0-0.9,0-1.8,0-2.7c0-0.8-0.3-1.1-1.1-1.1
		c-1.5,0-3,0-4.5,0c-0.9,0-1.2,0.3-1.2,1.2c0,3.1,0,6.1,0,9.2c0,0.1,0,0.3,0,0.4c2.3,0,4.5,0,6.8,0c0-0.2,0-0.3,0-0.4
		c0-1,0-2.1,0-3.1c0-0.5,0.2-0.8,0.6-0.8c0.4,0,0.6,0.3,0.6,0.8c0,1,0,2.1,0,3.1c0,0.1,0,0.3,0,0.4C34.7,45.1,36.9,45.1,39.2,45.1z
		 M23.1,45.1c0-2,0-4,0-6c0-0.5-0.4-0.8-1-0.8c-1.6,0-3.2,0-4.8,0c-0.7,0-1,0.3-1,1c0,1.5,0,2.9,0,4.4c0,0.4,0,0.9,0,1.3
		C18.5,45.1,20.8,45.1,23.1,45.1z M33.3,17.2c-1.4,0.8-2.7,1.6-3.9,2.4c-0.1,0.1-0.2,0.2-0.2,0.3c-0.4,1.3-0.9,2.6-1.3,4
		c0,0.1,0,0.4,0.1,0.5c0.7,0.9,1.4,1.8,2.2,2.6c0.7,0.7,0.9,1.6,0.7,2.6c-0.2,1.1-0.3,2.3-0.4,3.5c0.2,0.1,0.5,0.1,0.7,0.2
		c0-1.4,0-2.7,0-4.1c0-1.1,0.8-2,1.9-2.1c0.1,0,0.2,0,0.3,0C33.3,23.7,33.3,20.5,33.3,17.2z M41.1,6.2c-0.1,0-0.1-0.1-0.2-0.1
		c-2,0-4,0-6,0c-0.2,0-0.3,0.1-0.3,0.3c0,1.1,0,2.1,0,3.2c0,0.1,0,0.2,0,0.3c2.2,0,4.3,0,6.5,0c-0.4-0.4-0.8-0.7-1.2-1.1
		c-0.6-0.6-0.6-1.1,0-1.6C40.3,6.9,40.6,6.6,41.1,6.2z M8.2,45.1c2.3,0,4.5,0,6.8,0c0-0.8,0-1.5,0-2.2c0-0.5-0.3-0.8-0.8-0.8
		c-1.7,0-3.4,0-5.1,0c-0.5,0-0.8,0.3-0.8,0.8C8.2,43.6,8.2,44.3,8.2,45.1z M20.5,36.9c0,0,0.1,0.1,0.1,0.1c0.1-0.1,0.3-0.2,0.4-0.3
		c1-1.3,2-2.7,3.1-4c0.7-0.9,1.3-1.9,1.4-3.1c0-0.2,0.1-0.3,0.1-0.4c0.2-1.3,0.4-2.5,0.7-3.8c-1,0.4-1.8,0.7-2.7,1.1
		c-0.1,0-0.2,0.2-0.2,0.4c-0.1,1.3-0.1,2.6-0.2,3.8c-0.1,0.6-0.2,1.1-0.4,1.7C22,33.9,21.3,35.4,20.5,36.9z M29.2,33
		c0.2-1.4,0.3-2.8,0.5-4.2c0-0.1,0-0.3-0.1-0.4c-0.7-0.9-1.4-1.7-2.1-2.7c-0.1,0.7-0.2,1.2-0.3,1.7c-0.1,0.5,0,0.7,0.4,0.9
		c0.6,0.3,0.8,0.8,0.9,1.4c0.1,1,0.2,2.1,0.3,3.1c0,0,0,0.1,0.1,0.1C28.9,33,29,33,29.2,33z M27,15.9c0,0,0-0.1,0-0.1
		c-0.3-0.6-0.5-1.1-0.9-1.7c-0.2-0.3-0.5-0.3-0.8-0.2c-0.2,0.1-0.3,0.2-0.5,0.3c-0.5,0.3-0.6,0.6-0.3,1.1c0.2,0.4,0.4,0.8,0.6,1.2
		c0.2,0.4,0.5,0.5,0.9,0.4C26.5,16.8,27,16.4,27,15.9C27,16,27,16,27,15.9z M25.4,33c0.8,0,1.4,0,2.1,0c-0.1-1.1-0.2-2.1-0.3-3.2
		c0-0.2-0.2-0.3-0.3-0.4C26.5,30.7,26.5,32,25.4,33z M23,36.3C23,36.3,23,36.3,23,36.3c-0.3,0.2-0.4,0.4-0.6,0.7
		c0.2,0.1,0.4,0.1,0.6,0.1C23,36.9,23,36.6,23,36.3z"/>
</g>
</svg>
