<?xml version="1.0" encoding="utf-8"?>
<!-- Generator: Adobe Illustrator 22.0.1, SVG Export Plug-In . SVG Version: 6.00 Build 0)  -->
<svg version="1.1" id="Ebene_1" xmlns="http://www.w3.org/2000/svg" xmlns:xlink="http://www.w3.org/1999/xlink" x="0px" y="0px"
	 viewBox="0 0 50 50" style="enable-background:new 0 0 50 50;" xml:space="preserve">
<style type="text/css">
	.st0{fill:#FFFFFF;}
</style>
<g>
	<path class="st0" d="M34.1,4c0.2,0.1,0.5,0.1,0.7,0.2c1.3,0.5,2.1,1.7,2.1,3.3c0,4.6,0,9.2,0,13.8c0,1.2,0,2.4,0,3.6
		c0,0.2,0,0.4-0.1,0.5c-0.2,0.2-0.4,0.4-0.6,0.4c-0.3,0-0.5-0.2-0.5-0.5c0-0.2,0-0.3,0-0.5c0-5.7,0-11.5,0-17.2
		c0-1.2-0.6-2.1-1.8-2.3c-0.8-0.1-1.7,0-2.6,0c-0.1,0-0.2,0.1-0.2,0.2C31,5.9,31,6.3,30.9,6.7C30.6,8,29.5,9,28.2,9
		c-2.8,0-5.5,0-8.3,0c-1.3,0-2.4-0.9-2.7-2.2c-0.1-0.5-0.2-1-0.3-1.5c-0.9,0-1.8-0.1-2.6,0c-1,0.1-1.8,1-1.8,2c0,0.1,0,0.2,0,0.2
		c0,11.6,0,23.1,0,34.7c0,1.2,0.7,2,1.7,2.2c0.2,0,0.3,0,0.5,0c6.3,0,12.5,0,18.8,0c1.3,0,2.2-0.9,2.2-2.1c0-1.8,0-3.7,0-5.5
		c0-0.1,0-0.1,0-0.2c-0.2,0-0.3,0-0.5,0c-1.1,0-2.1,0-3.2,0c-0.8,0-1.5-0.3-1.9-1c-0.1-0.1-0.2-0.2-0.3-0.2c-3.2,0-6.4,0-9.6,0
		c-0.1,0-0.3,0.1-0.3,0.2c-0.4,0.9-1.2,1.3-2.2,1.3c0,0.6,0,1.2,0,1.8c0,0.4,0.3,0.6,0.8,0.6c0.7,0,1.4,0,2,0c0.5,0,0.8,0.2,0.7,0.6
		c0,0.4-0.3,0.6-0.8,0.6c-0.7,0-1.4,0-2.1,0c-1.1,0-1.9-0.8-1.9-1.9c0-0.6,0-1.1,0-1.7c-0.3,0-0.5-0.1-0.8-0.1
		c-1-0.3-1.6-1.1-1.5-2.1c0.1-1,0.8-1.8,1.9-1.8c0.7,0,1.4,0,2.1,0c0.8,0,1.3,0.4,1.7,1.1c0.1,0.1,0.2,0.3,0.3,0.3
		c0.8,0,1.7,0,2.5,0c0.1,0,0.2,0,0.4,0c0-0.7,0-1.3,0-2c0-0.3,0-0.6,0-0.9c0-1.2,0.8-2,2-2c1.5,0,3,0,4.5,0c0.1,0,0.3,0,0.5,0
		c0-0.1,0.1-0.2,0.1-0.3c0.3-0.8,1-1.3,1.9-1.3c3,0,5.9,0,8.9,0c1.1,0,2,0.9,2,2c0,1.1-0.9,2-2,2c-1.1,0-2.2,0-3.4,0
		c-0.1,0-0.3,0-0.5,0c0,0.3,0,0.5,0,0.8c0.2,0,0.3,0,0.5,0c1.1,0,2.2,0,3.3,0c1.2,0,2.1,0.9,2.1,2c0,1.2-0.9,2-2.1,2
		c-1.2,0-2.4,0-3.7,0c0,0.2,0,0.3,0,0.4c0,1.7,0,3.4,0,5.1c0,2.2-1.4,3.6-3.6,3.6c-6.2,0-12.3,0-18.5,0c-2.2,0-3.6-1.4-3.6-3.6
		c0-11.5,0-22.9,0-34.4c0-2,0.9-3.1,2.8-3.6c0,0,0,0,0.1,0C20.7,4,27.4,4,34.1,4z M35.6,31.6c-0.2,0-0.3,0-0.5,0c-1.1,0-2.2,0-3.2,0
		c-0.8,0-1.4-0.3-1.8-1c-0.1-0.1-0.2-0.2-0.3-0.2c-1.6,0-3.2,0-4.9,0c-0.5,0-0.7,0.3-0.7,0.8c0,0.9,0,1.7,0,2.6c0,0.1,0,0.2,0,0.3
		c1.8,0,3.6,0,5.5,0c0.1,0,0.2-0.1,0.3-0.2c0.4-0.9,1.1-1.3,2.1-1.3c1.1,0,2.1,0,3.2,0c0.1,0,0.3,0,0.5,0
		C35.6,32.2,35.6,31.9,35.6,31.6z M18.2,5.2c0.1,0.5,0.2,0.9,0.3,1.3c0.2,0.7,0.8,1.2,1.5,1.2c2.7,0,5.5,0,8.2,0
		c0.6,0,1.1-0.3,1.4-0.9c0.2-0.5,0.3-1.1,0.4-1.6C26,5.2,22.1,5.2,18.2,5.2z M36.3,30.4c0.8,0,1.6,0,2.4,0c0.7,0,1.4,0,2.1,0
		c0.5,0,0.8-0.4,0.8-0.8c0-0.4-0.3-0.8-0.8-0.8c-0.1,0-0.1,0-0.2,0c-2.8,0-5.7,0-8.5,0c-0.1,0-0.2,0-0.3,0c-0.4,0.1-0.7,0.4-0.7,0.8
		c0,0.4,0.2,0.7,0.7,0.8c0.1,0,0.3,0,0.4,0C33.5,30.4,34.9,30.4,36.3,30.4z M36.3,35.3c1.5,0,3,0,4.4,0c0.5,0,0.8-0.4,0.8-0.8
		c0-0.4-0.3-0.8-0.8-0.8c-0.1,0-0.2,0-0.3,0c-2.8,0-5.5,0-8.3,0c-0.1,0-0.3,0-0.4,0c-0.4,0.1-0.7,0.4-0.6,0.9c0,0.4,0.4,0.7,0.9,0.7
		C33.4,35.3,34.8,35.3,36.3,35.3z M17,33.9C17,33.9,17,33.9,17,33.9c-0.3,0-0.6,0-0.9,0c0,0-0.1,0-0.1,0c-0.5,0-0.8,0.4-0.8,0.8
		c0,0.4,0.3,0.8,0.8,0.8c0.6,0,1.2,0,1.8,0c0.5,0,0.8-0.4,0.8-0.8c0-0.4-0.3-0.8-0.8-0.8C17.6,33.9,17.3,33.9,17,33.9z"/>
	<path class="st0" d="M29,16.8c0.2-0.3,0.5-0.6,0.7-0.9c0.7-0.9,1.4-1.9,2.1-2.8c0.1-0.1,0.1-0.2,0.2-0.2c0.3-0.3,0.6-0.3,0.9-0.1
		c0.3,0.2,0.3,0.6,0.1,0.9c-0.4,0.6-0.9,1.2-1.3,1.8c-0.6,0.8-1.2,1.6-1.8,2.5c0.2,0.3,0.5,0.6,0.7,0.9c1,1.3,1.9,2.5,2.9,3.8
		c0.1,0.1,0.2,0.2,0.2,0.3c0.1,0.3,0.1,0.5-0.1,0.7c-0.2,0.2-0.5,0.2-0.8,0c-0.1-0.1-0.2-0.2-0.3-0.3c-1-1.3-2-2.7-3-4
		c-0.1-0.1-0.2-0.3-0.3-0.4c-0.2,0.2-0.3,0.4-0.4,0.6c-0.9,1.2-1.8,2.4-2.8,3.7c0,0.1-0.1,0.1-0.1,0.2c-0.3,0.3-0.6,0.4-0.9,0.1
		c-0.3-0.2-0.3-0.6-0.1-0.9c0.3-0.4,0.6-0.9,1-1.3c0.8-1.1,1.7-2.2,2.6-3.4c-0.3-0.5-0.7-0.9-1-1.4c-0.7-0.9-1.4-1.8-2.1-2.7
		c-0.3-0.4-0.3-0.8,0-1c0.3-0.2,0.6-0.1,0.9,0.3C27.1,14.2,28,15.5,29,16.8z"/>
	<path class="st0" d="M22.5,16.9c0,0.9,0,1.9,0,2.8c0,1.9-1,3.2-2.8,3.8c-2.2,0.7-4.7-0.7-5.1-2.8c0-0.2-0.1-0.4-0.1-0.6
		c0-2.2,0-4.4,0-6.6c0-0.5,0.2-0.8,0.6-0.8c0.4,0,0.6,0.3,0.6,0.8c0,2.1,0.1,4.2,0,6.3c-0.1,1.6,1.6,2.8,3,2.7
		c0.7-0.1,1.3-0.3,1.9-0.8c0.5-0.4,0.7-1,0.7-1.7c0-2.1,0-4.2,0-6.3c0-0.1,0-0.2,0-0.3c0-0.4,0.3-0.7,0.6-0.7c0.4,0,0.6,0.3,0.6,0.7
		c0,1,0,2,0,3C22.5,16.5,22.5,16.7,22.5,16.9z"/>
	<path class="st0" d="M27.4,41.7c-0.8,0-1.7,0-2.5,0c-1.2,0-2.1-0.9-2.1-2c0-1.1,0.9-2,2-2c1.7,0,3.4,0,5.1,0c1.2,0,2,0.9,2,2
		c0,1.1-0.9,2-2,2C29.1,41.7,28.2,41.7,27.4,41.7z M27.4,40.5c0.8,0,1.6,0,2.5,0c0.5,0,0.9-0.3,0.9-0.8c0-0.5-0.3-0.8-0.9-0.8
		c-1.7,0-3.3,0-5,0c-0.5,0-0.9,0.3-0.9,0.8c0,0.5,0.4,0.8,0.9,0.8C25.7,40.5,26.6,40.5,27.4,40.5z"/>
	<path class="st0" d="M33.6,7.2c0,0.3-0.3,0.6-0.6,0.6c-0.3,0-0.6-0.3-0.6-0.6c0-0.3,0.3-0.6,0.6-0.6C33.4,6.6,33.6,6.9,33.6,7.2z"
		/>
	<path class="st0" d="M24,7.2c-0.4,0-0.8,0-1.1,0c-0.4,0-0.6-0.2-0.6-0.6c0-0.4,0.2-0.6,0.6-0.6c0.8,0,1.6,0,2.4,0
		c0.4,0,0.6,0.3,0.6,0.6c0,0.4-0.2,0.6-0.6,0.6C24.8,7.2,24.4,7.2,24,7.2z"/>
</g>
</svg>
