<?xml version="1.0" encoding="utf-8"?>
<!-- Generator: Adobe Illustrator 22.0.1, SVG Export Plug-In . SVG Version: 6.00 Build 0)  -->
<svg version="1.1" id="Ebene_1" xmlns="http://www.w3.org/2000/svg" xmlns:xlink="http://www.w3.org/1999/xlink" x="0px" y="0px"
	 viewBox="0 0 50 50" style="enable-background:new 0 0 50 50;" xml:space="preserve">
<style type="text/css">
	.st0{fill:#FFFFFF;}
</style>
<g>
	<path class="st0" d="M46.9,34.4c-0.3,0.9-0.8,1.7-1.8,1.9c-0.3,0.1-0.5,0.1-0.8,0.1c-4.4,0-8.8,0-13.2,0c-0.2,0-0.3,0-0.6,0
		c0.2,0.9,0.3,1.7,0.5,2.5c0.4,1.8,0.8,3.6,1.1,5.4c0.2,0.7-0.1,1-0.8,1c-4,0-8,0-11.9,0c-0.7,0-1-0.3-0.8-1c0.5-2.5,1-4.9,1.6-7.4
		c0-0.1,0-0.3,0.1-0.5c-0.2,0-0.4,0-0.5,0c-4.7,0-9.3,0-14,0c-1.7,0-2.6-1-2.6-2.6c0-8.6,0-17.2,0-25.9c0-1.5,1-2.7,2.7-2.7
		c1,0.1,2.1,0,3.1,0c0.5,0,0.8,0.2,0.8,0.6c0,0.4-0.3,0.7-0.8,0.7c-1.1,0-2.1,0-3.2,0c-0.8,0-1.2,0.4-1.2,1.2c0,1.2,0,2.3,0,3.5
		c0.2,0,0.4,0,0.5,0c3.9,0,7.8,0,11.8,0c0.1,0,0.3,0,0.4,0c0.3,0.1,0.5,0.3,0.5,0.6c0,0.3-0.2,0.6-0.5,0.6c-0.2,0-0.3,0-0.5,0
		c-3.9,0-7.9,0-11.8,0c-0.1,0-0.3,0-0.4,0c0,5.7,0,11.3,0,17c13.7,0,27.4,0,41.1,0c0-5.6,0-11.3,0-17c-0.2,0-0.3,0-0.5,0
		c-8.4,0-16.7,0-25.1,0c-0.7,0-1-0.2-1-0.6c0-0.5,0.3-0.7,1-0.7c8.3,0,16.7,0,25,0c0.2,0,0.4,0,0.6,0c0-0.1,0-0.3,0-0.4c0-1,0-2,0-3
		c0-0.9-0.4-1.3-1.3-1.3c-10.6,0-21.2,0-31.7,0c-0.2,0-0.4,0-0.6,0c-0.3-0.1-0.5-0.3-0.5-0.7c0-0.3,0.2-0.5,0.6-0.6
		c0.2,0,0.3,0,0.5,0c10.4,0,20.9,0,31.3,0c1.5,0,2.6,0.4,3.1,1.9C46.9,16.2,46.9,25.3,46.9,34.4z M4.4,30.8c0,1,0,2,0,3
		c0,0.8,0.4,1.2,1.3,1.2c12.9,0,25.8,0,38.7,0c0.8,0,1.2-0.4,1.2-1.2c0-0.9,0-1.8,0-2.7c0-0.1,0-0.2,0-0.3
		C31.9,30.8,18.2,30.8,4.4,30.8z M20,43.9c3.6,0,7.2,0,10.8,0c-0.5-2.5-1.1-5.1-1.6-7.6c-2.6,0-5.1,0-7.6,0
		C21.1,38.9,20.5,41.4,20,43.9z"/>
	<path class="st0" d="M18.1,18.3c1.4,0.1,2.5,0.6,3.4,1.7c0.2,0.2,0.3,0.3,0.6,0.2c5.3-1.2,10.6-2.4,15.8-3.5
		c1.5-0.3,2.9,0.6,3.1,2.1c0.2,1.4-0.8,2.7-2.3,2.9c-3.8,0.5-7.7,0.9-11.5,1.4c-1.5,0.2-3,0.4-4.5,0.5c-0.3,0-0.4,0.1-0.5,0.4
		c-0.8,2.4-3,3.5-5.4,2.7c-1.8-0.5-3.4-1.5-5-2.5c-0.4-0.2-0.5-0.6-0.2-1c1.3-1.7,2.7-3.4,4.7-4.5c0.5-0.3,1-0.5,1.6-0.5
		C18,18.3,18.1,18.2,18.1,18.3z M22.4,22.3c0.2,0,0.3,0,0.4,0c5.2-0.6,10.5-1.3,15.7-1.9c0.8-0.1,1.3-0.7,1.2-1.4
		c-0.1-0.8-0.8-1.2-1.6-1c-4.6,1-9.1,2-13.7,3.1c-0.7,0.2-1.5,0.3-2.2,0.5C22.3,21.8,22.4,22,22.4,22.3z M14.7,24.3
		c0,0.1,0.1,0.1,0.1,0.1c0.9,0.4,1.8,0.8,2.8,1.1c1,0.3,1.9,0,2.6-0.7c1-0.9,1.3-2.6,0.6-3.6C19.3,23.5,17.1,24,14.7,24.3z M13.6,23
		c0,0.1,0,0.1,0.1,0.2c1-0.2,2-0.3,3-0.5c0.9-0.2,1.7-0.6,2.4-1.3c0.3-0.3,0.6-0.8,0.9-1.1c-0.9-0.7-2-0.8-2.8-0.4
		C15.6,20.6,14.6,21.8,13.6,23z"/>
</g>
</svg>
