<?xml version="1.0" encoding="utf-8"?>
<!-- Generator: Adobe Illustrator 22.0.1, SVG Export Plug-In . SVG Version: 6.00 Build 0)  -->
<svg version="1.1" id="Ebene_1" xmlns="http://www.w3.org/2000/svg" xmlns:xlink="http://www.w3.org/1999/xlink" x="0px"
	y="0px" viewBox="0 0 10 9.6" style="enable-background:new 0 0 10 9.6;" xml:space="preserve">
	<style type="text/css">
		.st0 {
			opacity: 7.000000e-02;
		}

		.st1 {
			fill: #8FACAB;
		}
	</style>
	<g class="st0">
		<circle class="st1" cx="4.1" cy="0.8" r="0.6" />
		<circle class="st1" cx="5.7" cy="0.8" r="0.6" />
		<circle class="st1" cx="2.5" cy="0.8" r="0.6" />
		<circle class="st1" cx="1" cy="0.8" r="0.6" />
	</g>
	<g class="st0">
		<circle class="st1" cx="4.1" cy="2.4" r="0.6" />
		<circle class="st1" cx="5.7" cy="2.4" r="0.6" />
		<circle class="st1" cx="2.5" cy="2.4" r="0.6" />
		<circle class="st1" cx="1" cy="2.4" r="0.6" />
	</g>
	<g class="st0">
		<circle class="st1" cx="4.1" cy="4" r="0.6" />
		<circle class="st1" cx="5.7" cy="4" r="0.6" />
		<circle class="st1" cx="2.5" cy="4" r="0.6" />
		<circle class="st1" cx="1" cy="4" r="0.6" />
	</g>
	<g class="st0">
		<circle class="st1" cx="4.1" cy="5.6" r="0.6" />
		<circle class="st1" cx="5.7" cy="5.6" r="0.6" />
		<circle class="st1" cx="2.5" cy="5.6" r="0.6" />
		<circle class="st1" cx="1" cy="5.6" r="0.6" />
	</g>
	<g class="st0">
		<circle class="st1" cx="4.1" cy="7.2" r="0.6" />
		<circle class="st1" cx="5.7" cy="7.2" r="0.6" />
		<circle class="st1" cx="2.5" cy="7.2" r="0.6" />
		<circle class="st1" cx="1" cy="7.2" r="0.6" />
	</g>
	<g class="st0">
		<circle class="st1" cx="4.1" cy="8.8" r="0.6" />
		<circle class="st1" cx="5.7" cy="8.8" r="0.6" />
		<circle class="st1" cx="2.5" cy="8.8" r="0.6" />
		<circle class="st1" cx="1" cy="8.8" r="0.6" />
	</g>
</svg>